<svg version="1.2" xmlns="http://www.w3.org/2000/svg" viewBox="0 0 154 57" width="154" height="57">
	<title>download-svg</title>
	<defs>
		<clipPath clipPathUnits="userSpaceOnUse" id="cp1">
			<path d="m0 0h154v57h-154z"/>
		</clipPath>
	</defs>
	<style>
		tspan { white-space:pre } 
		.s0 { fill: #3a7bad } 
		.t1 { font-size: 24px;fill: #fdf9f9;font-weight: 400;font-family: "DejaVuSansCondensed", "DejaVu Sans Condensed" } 
		.t2 { font-size: 12px;fill: #fdf9f9;font-weight: 400;font-family: "DejaVuSansCondensed", "DejaVu Sans Condensed" } 
	</style>
	<g id="Clip-Path: Builty_Logo" clip-path="url(#cp1)">
		<g id="Builty_Logo">
			<path id="Subtraction_6" fill-rule="evenodd" class="s0" d="m41.5 55c-2.6 0-5.2-0.4-7.6-1.1-2.5-0.8-4.9-1.9-7-3.3-2.2-1.4-4.1-3.2-5.8-5.2-1.7-2-3-4.2-4-6.6q-0.1-0.2-0.2-0.4l22.6-22.3 12.5 12.7 3.9-4.5-16.4-16.2-13 13.5 0.1-4.9-3.9-2-3 3.3 2.9-0.9v2.7l-0.1 5.9-7.1 7.4c-1.4-8 0.9-16.2 6.3-22.2 5.4-6.1 13.2-9.3 21.3-8.8 8.1 0.4 15.5 4.6 20.2 11.2 4.6 6.6 6 15 3.7 22.8l-9.4-9.4-20.2 20.4h8.2l12-12.4 6.7 7.5q-1.8 2.9-4.2 5.3-2.5 2.4-5.5 4.1-2.9 1.7-6.3 2.5-3.3 0.9-6.7 0.9zm16.5-11v2h2v-2zm-3 0v2h2v-2zm3-3v2h2v-2zm-3 0v2h2v-2zm-15.4-23.3l-20.5 20.7 0.1 0.3 20.2-18.1 9.8 7.9 0.3-0.4c0 0-9.9-10.4-9.9-10.4zm0.4 12.3v3h3v-3zm-4 0v3h3v-3zm4-5v3h3v-3zm-4 0v3h3v-3z"/>
			<path id="Path_4" class="s0" d="m15.6 32.9l-0.6-4.5-14.4 18.8z"/>
			<path id="Path_7" class="s0" d="m22.5 25.5v5.5l-0.7-5.3z"/>
			<text id="Text layer 11" style="transform: matrix(1,0,0,1,185,16)" >
			</text>
			<text id="SAP  BUSINESS" style="transform: matrix(1,0,0,1,77,13)" >
				<tspan x="0" y="18.2" class="t1">S</tspan><tspan  y="18.2" class="t1">A</tspan><tspan  y="18.2" class="t1">P</tspan><tspan  y="18.2" class="t1"> </tspan><tspan  y="18.2" class="t1">
</tspan>
				<tspan x="0" y="32.6" class="t2">B</tspan><tspan  y="32.6" class="t2">U</tspan><tspan  y="32.6" class="t2">S</tspan><tspan  y="32.6" class="t2">I</tspan><tspan  y="32.6" class="t2">N</tspan><tspan  y="32.6" class="t2">E</tspan><tspan  y="32.6" class="t2">S</tspan><tspan  y="32.6" class="t2">S
</tspan>
			</text>
			<text id="" style="transform: matrix(1,0,0,1,100,17)" >
			</text>
			<path id="Path_8" class="s0" d="m22.9 30.6l-0.5-3.8-12.3 15.3z"/>
			<text id="" style="transform: matrix(1,0,0,1,39,26)" >
			</text>
		</g>
	</g>
</svg>